# xmcd CD database file
# Copyright (C) 1997 Ti Kan
# 
# Track frame offsets:
#     182
#     15015
#     34262
#     46032
#     55920
#     67430
#     98207
#     112765
#     131610
#     153220
#     175132
#     190150
#     208080
# 
# Disc length: 3002 seconds
# 
# Revision: 1
# Processed by: cddbd v1.4b41PL1 Copyright (c) Steve Scherf et al.
# Submitted via: DiscPlay 4.0.3
# 
DISCID=a60bb80d
DTITLE=Bernadette Peters - Bernadette
DYEAR=1900
DGENRE=
TTITLE0=Broadway Baby
TTITLE1=Don't
TTITLE2=Gee Whiz
TTITLE3=Carrying A Torch
TTITLE4=Sweet Alibis
TTITLE5=I Don't Know Why (I Just Do)/ Mean To Me
TTITLE6=If You Were The Only Boy
TTITLE7=Should've Never Let Him Go
TTITLE8=Pearl's A Singer
TTITLE9=Other Lady
TTITLE10=Only Wounded
TTITLE11=I Never Thought I'd Break
TTITLE12=You'll Never Know
EXTD=
EXTT0=
EXTT1=
EXTT2=
EXTT3=
EXTT4=
EXTT5=
EXTT6=
EXTT7=
EXTT8=
EXTT9=
EXTT10=
EXTT11=
EXTT12=
PLAYORDER=
